<svg width="84" height="100" viewBox="0 0 84 100" fill="none" xmlns="http://www.w3.org/2000/svg">
<path d="M0 19.2C0 12.4794 0 9.11905 1.30792 6.55211C2.4584 4.29417 4.29417 2.4584 6.55211 1.30792C9.11905 0 12.4794 0 19.2 0L40.9345 0C43.4012 0 44.6345 0 45.7941 0.280654C46.822 0.529471 47.804 0.939794 48.7034 1.49633C49.7179 2.12407 50.5846 3.00157 52.318 4.75656L79.3835 32.1594C81.0877 33.8848 81.9398 34.7475 82.549 35.7513C83.0891 36.6413 83.4869 37.6101 83.728 38.6229C84 39.7651 84 40.9777 84 43.4028V80.8C84 87.5206 84 90.8809 82.6921 93.4479C81.5416 95.7058 79.7058 97.5416 77.4479 98.6921C74.8809 100 71.5206 100 64.8 100H19.2C12.4794 100 9.11905 100 6.55211 98.6921C4.29417 97.5416 2.4584 95.7058 1.30792 93.4479C0 90.8809 0 87.5206 0 80.8L0 19.2Z" fill="url(#paint0_linear_196_1519)"/>
<path d="M0 19.2C0 12.4794 0 9.11905 1.30792 6.55211C2.4584 4.29417 4.29417 2.4584 6.55211 1.30792C9.11905 0 12.4794 0 19.2 0L40.4 0C43.7603 0 45.4405 0 46.7239 0.653961C47.8529 1.2292 48.7708 2.14708 49.346 3.27606C50 4.55953 50 6.23969 50 9.6V14.8C50 21.5206 50 24.8809 51.3079 27.4479C52.4584 29.7058 54.2942 31.5416 56.5521 32.6921C59.1191 34 62.4794 34 69.2 34H74.4C77.7603 34 79.4405 34 80.7239 34.654C81.8529 35.2292 82.7708 36.1471 83.346 37.2761C84 38.5595 84 40.2397 84 43.6V80.8C84 87.5206 84 90.8809 82.6921 93.4479C81.5416 95.7058 79.7058 97.5416 77.4479 98.6921C74.8809 100 71.5206 100 64.8 100H19.2C12.4794 100 9.11905 100 6.55211 98.6921C4.29417 97.5416 2.4584 95.7058 1.30792 93.4479C0 90.8809 0 87.5206 0 80.8L0 19.2Z" fill="url(#paint1_linear_196_1519)"/>
<path d="M0 19.2C0 12.4794 0 9.11905 1.30792 6.55211C2.4584 4.29417 4.29417 2.4584 6.55211 1.30792C9.11905 0 12.4794 0 19.2 0L40.4 0C43.7603 0 45.4405 0 46.7239 0.653961C47.8529 1.2292 48.7708 2.14708 49.346 3.27606C50 4.55953 50 6.23969 50 9.6V14.8C50 21.5206 50 24.8809 51.3079 27.4479C52.4584 29.7058 54.2942 31.5416 56.5521 32.6921C59.1191 34 62.4794 34 69.2 34H74.4C77.7603 34 79.4405 34 80.7239 34.654C81.8529 35.2292 82.7708 36.1471 83.346 37.2761C84 38.5595 84 40.2397 84 43.6V80.8C84 87.5206 84 90.8809 82.6921 93.4479C81.5416 95.7058 79.7058 97.5416 77.4479 98.6921C74.8809 100 71.5206 100 64.8 100H19.2C12.4794 100 9.11905 100 6.55211 98.6921C4.29417 97.5416 2.4584 95.7058 1.30792 93.4479C0 90.8809 0 87.5206 0 80.8L0 19.2Z" fill="url(#paint2_linear_196_1519)" fill-opacity="0.7"/>
<path d="M27.9999 67.5003V73.5003M27.9999 79.5003H28.0149M42.5949 81.0003L30.5949 60.0003C30.3332 59.5386 29.9538 59.1546 29.4953 58.8874C29.0368 58.6203 28.5156 58.4795 27.9849 58.4795C27.4542 58.4795 26.933 58.6203 26.4745 58.8874C26.016 59.1546 25.6365 59.5386 25.3749 60.0003L13.3749 81.0003C13.1104 81.4584 12.9717 81.9782 12.9729 82.5071C12.9741 83.036 13.1151 83.5552 13.3816 84.0121C13.6481 84.4689 14.0306 84.8472 14.4904 85.1086C14.9503 85.3699 15.471 85.5051 15.9999 85.5003H39.9999C40.5262 85.4998 41.0432 85.3608 41.4988 85.0973C41.9544 84.8337 42.3327 84.455 42.5957 83.999C42.8586 83.543 42.997 83.0259 42.9968 82.4996C42.9967 81.9732 42.8581 81.4562 42.5949 81.0003Z" stroke="white" stroke-width="3" stroke-linecap="round" stroke-linejoin="round"/>
<defs>
<linearGradient id="paint0_linear_196_1519" x1="55.5" y1="28.5" x2="65.5" y2="18.5" gradientUnits="userSpaceOnUse">
<stop stop-color="#DBDBDB"/>
<stop offset="1" stop-color="white"/>
</linearGradient>
<linearGradient id="paint1_linear_196_1519" x1="50" y1="34" x2="63" y2="21" gradientUnits="userSpaceOnUse">
<stop stop-color="#595959"/>
<stop offset="0.0631339" stop-color="#595959"/>
<stop offset="0.129101" stop-color="#595959"/>
<stop offset="0.197363" stop-color="#585858"/>
<stop offset="0.267383" stop-color="#575757"/>
<stop offset="0.338624" stop-color="#555555"/>
<stop offset="0.410549" stop-color="#535353"/>
<stop offset="0.482621" stop-color="#515151"/>
<stop offset="0.554302" stop-color="#4F4F4F"/>
<stop offset="0.625055" stop-color="#4C4C4C"/>
<stop offset="0.694343" stop-color="#494949"/>
<stop offset="0.761628" stop-color="#454545"/>
<stop offset="0.826374" stop-color="#414141"/>
<stop offset="0.888042" stop-color="#3D3D3D"/>
<stop offset="0.946097" stop-color="#383838"/>
<stop offset="1" stop-color="#333333"/>
</linearGradient>
<linearGradient id="paint2_linear_196_1519" x1="42" y1="100" x2="42" y2="50" gradientUnits="userSpaceOnUse">
<stop stop-color="#333333"/>
<stop offset="1" stop-color="#6F6F6F" stop-opacity="0"/>
</linearGradient>
</defs>
</svg>
