<svg preserveAspectRatio="none" width="100%" height="100%" overflow="visible" style="display: block;" viewBox="0 0 334.19 192" fill="none" xmlns="http://www.w3.org/2000/svg">
<g id="Rectangle 1" filter="url(#filter0_i_0_4)">
<path d="M0.124098 13.3086C-0.0604305 8.6684 -0.152695 6.3483 0.692983 4.56778C1.43645 3.00244 2.6681 1.72084 4.20265 0.91576C5.94816 0 8.27011 0 12.914 0H321.276C325.92 0 328.242 0 329.987 0.91576C331.522 1.72084 332.753 3.00244 333.497 4.56778C334.342 6.3483 334.25 8.6684 334.066 13.3086L327.448 179.709C327.277 184.027 327.191 186.187 326.296 187.829C325.508 189.274 324.293 190.441 322.818 191.171C321.142 192 318.981 192 314.658 192H19.5313C15.2092 192 13.0481 192 11.3717 191.171C9.89629 190.441 8.68188 189.274 7.89411 187.829C6.999 186.187 6.91313 184.027 6.74138 179.709L0.124098 13.3086Z" fill="url(#paint0_linear_0_4)"/>
</g>
<defs>
<filter id="filter0_i_0_4" x="0" y="0" width="334.19" height="192" filterUnits="userSpaceOnUse" color-interpolation-filters="sRGB">
<feFlood flood-opacity="0" result="BackgroundImageFix"/>
<feBlend mode="normal" in="SourceGraphic" in2="BackgroundImageFix" result="shape"/>
<feColorMatrix in="SourceAlpha" type="matrix" values="0 0 0 0 0 0 0 0 0 0 0 0 0 0 0 0 0 0 127 0" result="hardAlpha"/>
<feOffset dy="1"/>
<feComposite in2="hardAlpha" operator="arithmetic" k2="-1" k3="1"/>
<feColorMatrix type="matrix" values="0 0 0 0 1 0 0 0 0 1 0 0 0 0 1 0 0 0 1 0"/>
<feBlend mode="normal" in2="shape" result="effect1_innerShadow_0_4"/>
</filter>
<linearGradient id="paint0_linear_0_4" x1="174.73" y1="0" x2="174.73" y2="192" gradientUnits="userSpaceOnUse">
<stop stop-color="#EDEDED"/>
<stop offset="1" stop-color="#DBDBDB"/>
</linearGradient>
</defs>
</svg>
