<svg preserveAspectRatio="none" width="100%" height="100%" overflow="visible" style="display: block;" viewBox="0 0 341.754 184" fill="none" xmlns="http://www.w3.org/2000/svg">
<g id="Rectangle 1" filter="url(#filter0_i_0_12)">
<path d="M0.237648 13.6078C-0.0616614 8.87453 -0.211316 6.5079 0.617427 4.68662C1.34577 3.08599 2.58123 1.76994 4.13271 0.942031C5.89805 0 8.26941 0 13.0121 0H328.742C333.485 0 335.856 0 337.622 0.942031C339.173 1.76994 340.409 3.08599 341.137 4.68662C341.966 6.5079 341.816 8.87453 341.517 13.6078L331.5 172.008C331.233 176.231 331.1 178.342 330.192 179.943C329.394 181.353 328.185 182.487 326.728 183.196C325.072 184 322.957 184 318.726 184H23.0286C18.7975 184 16.6819 184 15.0263 183.196C13.5688 182.487 12.3607 181.353 11.562 179.943C10.6547 178.342 10.5212 176.231 10.2541 172.008L0.237648 13.6078Z" fill="url(#paint0_linear_0_12)"/>
</g>
<defs>
<filter id="filter0_i_0_12" x="0" y="0" width="341.754" height="184" filterUnits="userSpaceOnUse" color-interpolation-filters="sRGB">
<feFlood flood-opacity="0" result="BackgroundImageFix"/>
<feBlend mode="normal" in="SourceGraphic" in2="BackgroundImageFix" result="shape"/>
<feColorMatrix in="SourceAlpha" type="matrix" values="0 0 0 0 0 0 0 0 0 0 0 0 0 0 0 0 0 0 127 0" result="hardAlpha"/>
<feOffset dy="1"/>
<feComposite in2="hardAlpha" operator="arithmetic" k2="-1" k3="1"/>
<feColorMatrix type="matrix" values="0 0 0 0 1 0 0 0 0 1 0 0 0 0 1 0 0 0 1 0"/>
<feBlend mode="normal" in2="shape" result="effect1_innerShadow_0_12"/>
</filter>
<linearGradient id="paint0_linear_0_12" x1="178.512" y1="0" x2="178.512" y2="184" gradientUnits="userSpaceOnUse">
<stop stop-color="#EDEDED"/>
<stop offset="1" stop-color="#DBDBDB"/>
</linearGradient>
</defs>
</svg>
