<svg preserveAspectRatio="none" width="100%" height="100%" overflow="visible" style="display: block;" viewBox="0 0 319 232" fill="none" xmlns="http://www.w3.org/2000/svg">
<path id="Union" d="M127.507 17.3507C128.833 19.7699 129.495 20.9795 130.444 21.8607C131.283 22.6402 132.279 23.2305 133.366 23.5917C134.595 24 135.974 24 138.732 24H306.2C310.68 24 312.921 24 314.632 24.8719C316.137 25.6389 317.361 26.8628 318.128 28.3681C319 30.0794 319 32.3196 319 36.8V219.2C319 223.68 319 225.921 318.128 227.632C317.361 229.137 316.137 230.361 314.632 231.128C312.921 232 310.68 232 306.2 232H12.8C8.31958 232 6.07937 232 4.36808 231.128C2.86278 230.361 1.63893 229.137 0.871948 227.632C0 225.921 0 223.68 0 219.2V12.8C0 8.31958 0 6.07937 0.871948 4.36808C1.63893 2.86278 2.86278 1.63893 4.36808 0.871948C6.07937 0 8.31958 0 12.8 0H110.418C113.177 0 114.556 0 115.784 0.40829C116.871 0.769473 117.868 1.35978 118.707 2.13929C119.655 3.02047 120.318 4.23007 121.643 6.64926L127.507 17.3507Z" fill="url(#paint0_linear_0_7)"/>
<defs>
<linearGradient id="paint0_linear_0_7" x1="159.5" y1="0" x2="159.5" y2="232" gradientUnits="userSpaceOnUse">
<stop stop-color="#DBDBDB"/>
<stop offset="1" stop-color="#B3B3B3"/>
</linearGradient>
</defs>
</svg>
