<svg width="512" height="512" viewBox="0 0 512 512" fill="none" xmlns="http://www.w3.org/2000/svg">
<g filter="url(#filter0_i_227_768)">
<path d="M143.275 64.7722C143.275 51.7825 153.805 41.2522 166.795 41.2522H344.455C357.445 41.2522 367.975 51.7825 367.975 64.7722V421.142C367.975 440.889 345.111 451.846 329.719 439.474L270.361 391.76C261.755 384.842 249.495 384.842 240.889 391.76L181.531 439.474C166.139 451.846 143.275 440.889 143.275 421.142V64.7722Z" fill="url(#paint0_linear_227_768)"/>
</g>
<path d="M166.795 43.7717H344.455C356.053 43.7717 365.454 53.174 365.455 64.7717V421.142C365.455 438.773 345.041 448.556 331.298 437.51L271.939 389.795C262.411 382.137 248.838 382.136 239.31 389.795L179.952 437.51C166.21 448.556 145.795 438.773 145.795 421.142V64.7717C145.795 53.1741 155.197 43.772 166.795 43.7717Z" stroke="#DBDBDB" stroke-width="5.04"/>
<defs>
<filter id="filter0_i_227_768" x="143.275" y="41.2522" width="224.7" height="405.134" filterUnits="userSpaceOnUse" color-interpolation-filters="sRGB">
<feFlood flood-opacity="0" result="BackgroundImageFix"/>
<feBlend mode="normal" in="SourceGraphic" in2="BackgroundImageFix" result="shape"/>
<feColorMatrix in="SourceAlpha" type="matrix" values="0 0 0 0 0 0 0 0 0 0 0 0 0 0 0 0 0 0 127 0" result="hardAlpha"/>
<feOffset dy="8.4"/>
<feGaussianBlur stdDeviation="0.84"/>
<feComposite in2="hardAlpha" operator="arithmetic" k2="-1" k3="1"/>
<feColorMatrix type="matrix" values="0 0 0 0 1 0 0 0 0 1 0 0 0 0 1 0 0 0 1 0"/>
<feBlend mode="normal" in2="shape" result="effect1_innerShadow_227_768"/>
</filter>
<linearGradient id="paint0_linear_227_768" x1="255.625" y1="41.2522" x2="255.625" y2="470.225" gradientUnits="userSpaceOnUse">
<stop stop-color="#EDEDED"/>
<stop offset="1" stop-color="white"/>
</linearGradient>
</defs>
</svg>
