<svg width="52" height="60" viewBox="0 0 52 60" fill="none" xmlns="http://www.w3.org/2000/svg">
<mask id="path-1-inside-1_249_326" fill="white">
<path d="M34 0C43.9411 2.57703e-07 52 8.05888 52 18V23.25C52 24.9069 50.6569 26.25 49 26.25H37.1719C35.515 26.25 34.1719 24.9069 34.1719 23.25V16.5C34.1719 15.6717 33.5001 15.0002 32.6719 15H19.3281C18.4999 15.0002 17.8281 15.6717 17.8281 16.5V43.3506C17.8281 44.6131 19.293 45.311 20.2734 44.5156L25.0547 40.6357C25.6055 40.1887 26.3945 40.1887 26.9453 40.6357L31.7266 44.5156C32.707 45.311 34.1719 44.6131 34.1719 43.3506V36.75C34.1719 35.0931 35.515 33.75 37.1719 33.75H49C50.6569 33.75 52 35.0931 52 36.75V42C52 51.9411 43.9411 60 34 60H18C8.05888 60 3.8658e-07 51.9411 0 42V18C3.8658e-07 8.05888 8.05888 2.57703e-07 18 0H34Z"/>
</mask>
<path d="M34 0C43.9411 2.57703e-07 52 8.05888 52 18V23.25C52 24.9069 50.6569 26.25 49 26.25H37.1719C35.515 26.25 34.1719 24.9069 34.1719 23.25V16.5C34.1719 15.6717 33.5001 15.0002 32.6719 15H19.3281C18.4999 15.0002 17.8281 15.6717 17.8281 16.5V43.3506C17.8281 44.6131 19.293 45.311 20.2734 44.5156L25.0547 40.6357C25.6055 40.1887 26.3945 40.1887 26.9453 40.6357L31.7266 44.5156C32.707 45.311 34.1719 44.6131 34.1719 43.3506V36.75C34.1719 35.0931 35.515 33.75 37.1719 33.75H49C50.6569 33.75 52 35.0931 52 36.75V42C52 51.9411 43.9411 60 34 60H18C8.05888 60 3.8658e-07 51.9411 0 42V18C3.8658e-07 8.05888 8.05888 2.57703e-07 18 0H34Z" fill="url(#paint0_linear_249_326)"/>
<path d="M34 0V-1.5V-1.5V0ZM52 18H53.5V18H52ZM34.1719 16.5H35.6719V16.5H34.1719ZM32.6719 15L32.6723 13.5H32.6719V15ZM19.3281 15V13.5H19.3277L19.3281 15ZM20.2734 44.5156L21.2184 45.6805L21.2186 45.6804L20.2734 44.5156ZM25.0547 40.6357L25.9999 41.8005L25.9999 41.8004L25.0547 40.6357ZM26.9453 40.6357L26.0001 41.8004L26.0001 41.8005L26.9453 40.6357ZM31.7266 44.5156L30.7814 45.6804L30.7816 45.6805L31.7266 44.5156ZM52 42H53.5V42H52ZM34 60V61.5V61.5V60ZM18 60V61.5V61.5V60ZM0 42H-1.5V42H0ZM0 18H-1.5V18H0ZM18 0V-1.5V-1.5V0ZM34 0V1.5C43.1127 1.5 50.5 8.8873 50.5 18H52H53.5C53.5 7.23045 44.7696 -1.5 34 -1.5V0ZM52 18H50.5V23.25H52H53.5V18H52ZM49 26.25V24.75H37.1719V26.25V27.75H49V26.25ZM34.1719 23.25H35.6719V16.5H34.1719H32.6719V23.25H34.1719ZM34.1719 16.5H35.6719C35.6719 14.8429 34.3282 13.5005 32.6723 13.5L32.6719 15L32.6714 16.5H32.6719H34.1719ZM32.6719 15V13.5H19.3281V15V16.5H32.6719V15ZM19.3281 15L19.3277 13.5C17.6718 13.5005 16.3281 14.8429 16.3281 16.5H17.8281H19.3281H19.3286L19.3281 15ZM17.8281 16.5H16.3281V43.3506H17.8281H19.3281V16.5H17.8281ZM17.8281 43.3506H16.3281C16.3281 45.8758 19.2576 47.2712 21.2184 45.6805L20.2734 44.5156L19.3284 43.3507L19.3281 43.3506H17.8281ZM20.2734 44.5156L21.2186 45.6804L25.9999 41.8005L25.0547 40.6357L24.1095 39.471L19.3283 43.3509L20.2734 44.5156ZM25.0547 40.6357L25.9999 41.8004H26.0001L26.9453 40.6357L27.8905 39.471C26.7888 38.5769 25.2112 38.5769 24.1095 39.471L25.0547 40.6357ZM26.9453 40.6357L26.0001 41.8005L30.7814 45.6804L31.7266 44.5156L32.6717 43.3509L27.8905 39.471L26.9453 40.6357ZM31.7266 44.5156L30.7816 45.6805C32.7424 47.2712 35.6719 45.8758 35.6719 43.3506H34.1719H32.6719L32.6716 43.3507L31.7266 44.5156ZM34.1719 43.3506H35.6719V36.75H34.1719H32.6719V43.3506H34.1719ZM37.1719 33.75V35.25H49V33.75V32.25H37.1719V33.75ZM52 36.75H50.5V42H52H53.5V36.75H52ZM52 42H50.5C50.5 51.1127 43.1127 58.5 34 58.5V60V61.5C44.7696 61.5 53.5 52.7696 53.5 42H52ZM34 60V58.5H18V60V61.5H34V60ZM18 60V58.5C8.8873 58.5 1.5 51.1127 1.5 42H0H-1.5C-1.5 52.7696 7.23045 61.5 18 61.5V60ZM0 42H1.5V18H0H-1.5V42H0ZM0 18H1.5C1.5 8.8873 8.8873 1.5 18 1.5V0V-1.5C7.23045 -1.5 -1.5 7.23045 -1.5 18H0ZM18 0V1.5H34V0V-1.5H18V0ZM49 33.75V35.25C49.8284 35.25 50.5 35.9216 50.5 36.75H52H53.5C53.5 34.2647 51.4853 32.25 49 32.25V33.75ZM34.1719 36.75H35.6719C35.6719 35.9216 36.3434 35.25 37.1719 35.25V33.75V32.25C34.6866 32.25 32.6719 34.2647 32.6719 36.75H34.1719ZM37.1719 26.25V24.75C36.3434 24.75 35.6719 24.0784 35.6719 23.25H34.1719H32.6719C32.6719 25.7353 34.6866 27.75 37.1719 27.75V26.25ZM52 23.25H50.5C50.5 24.0784 49.8284 24.75 49 24.75V26.25V27.75C51.4853 27.75 53.5 25.7353 53.5 23.25H52Z" fill="#262626" mask="url(#path-1-inside-1_249_326)"/>
<g opacity="0.6" filter="url(#filter0_f_249_326)">
<path d="M50.4757 37.0071C50.5111 36.7352 50.4735 36.4395 50.3457 36.168C50.1381 35.7086 49.6419 35.3327 49.0766 35.3066C49.0561 35.3052 49.0357 35.3039 49.0153 35.3027C48.9468 35.2986 48.8783 35.2955 48.8098 35.2935C48.0605 35.272 47.3111 35.2637 46.5618 35.2585C45.4085 35.2506 44.2552 35.2411 43.1019 35.2411C41.9156 35.2411 40.7294 35.2657 39.5431 35.276C38.7666 35.2828 37.99 35.2849 37.2135 35.2935C37.1847 35.2939 37.156 35.2948 37.1272 35.2962C36.6526 35.3138 36.2517 35.626 36.0141 35.9618C35.9628 36.0321 35.9176 36.1059 35.8791 36.182C35.7461 36.4434 35.6944 36.7345 35.728 37.0071C35.7604 36.7344 35.8717 36.4815 36.0406 36.289C36.0896 36.2329 36.1432 36.1819 36.2004 36.1367C36.4828 35.9142 36.8385 35.8977 37.1272 35.9196C37.156 35.921 37.1847 35.922 37.2135 35.9223C37.99 35.931 38.7666 35.933 39.5431 35.9398C40.7294 35.9502 41.9156 35.9748 43.1019 35.9748C44.2552 35.9748 45.4085 35.9652 46.5618 35.9573C47.3111 35.9521 48.0605 35.9438 48.8098 35.9223C48.8783 35.9203 48.9468 35.9172 49.0153 35.9131C49.0357 35.9119 49.0561 35.9106 49.0766 35.9092C49.4349 35.8751 49.8452 35.9897 50.1421 36.3029C50.3162 36.4853 50.4416 36.7338 50.4757 37.0071Z" fill="url(#paint1_linear_249_326)"/>
</g>
<g opacity="0.6" filter="url(#filter1_f_249_326)">
<path d="M6.26416 6.44902C6.7913 6.00129 7.35184 5.59405 7.93122 5.22463C10.9602 3.32468 14.4883 2.25492 18 2.24383C18.3401 2.24518 18.6801 2.24585 19.0202 2.24585C23.6523 2.24585 28.2844 2.24585 32.9166 2.24585C33.2777 2.24585 33.6389 2.24507 34 2.24351C37.4353 2.24342 40.9029 3.18321 43.8713 5.03182C44.4527 5.39815 45.0133 5.80414 45.5411 6.25185C45.0654 5.74915 44.5439 5.28418 43.9913 4.85969C41.1664 2.70901 37.5948 1.52572 34 1.49819C33.6389 1.49663 33.2777 1.49585 32.9166 1.49585C28.2844 1.49585 23.6523 1.49585 19.0202 1.49585C18.6801 1.49585 18.3401 1.49652 18 1.49787C14.3058 1.53719 10.6933 2.85321 7.81184 5.05519C7.26168 5.48169 6.73997 5.94702 6.26416 6.44902Z" fill="white"/>
</g>
<defs>
<filter id="filter0_f_249_326" x="35.518" y="35.041" width="15.1704" height="2.16611" filterUnits="userSpaceOnUse" color-interpolation-filters="sRGB">
<feFlood flood-opacity="0" result="BackgroundImageFix"/>
<feBlend mode="normal" in="SourceGraphic" in2="BackgroundImageFix" result="shape"/>
<feGaussianBlur stdDeviation="0.1" result="effect1_foregroundBlur_249_326"/>
</filter>
<filter id="filter1_f_249_326" x="6.01416" y="1.24585" width="39.777" height="5.45312" filterUnits="userSpaceOnUse" color-interpolation-filters="sRGB">
<feFlood flood-opacity="0" result="BackgroundImageFix"/>
<feBlend mode="normal" in="SourceGraphic" in2="BackgroundImageFix" result="shape"/>
<feGaussianBlur stdDeviation="0.125" result="effect1_foregroundBlur_249_326"/>
</filter>
<linearGradient id="paint0_linear_249_326" x1="26" y1="0" x2="26" y2="60" gradientUnits="userSpaceOnUse">
<stop stop-color="#595959"/>
<stop offset="1" stop-color="#262626"/>
</linearGradient>
<linearGradient id="paint1_linear_249_326" x1="43.2119" y1="35.6079" x2="43.2119" y2="36.3075" gradientUnits="userSpaceOnUse">
<stop stop-color="white"/>
<stop offset="1" stop-color="white" stop-opacity="0"/>
</linearGradient>
</defs>
</svg>
