<svg width="52" height="60" viewBox="0 0 52 60" fill="none" xmlns="http://www.w3.org/2000/svg">
<mask id="path-1-inside-1_167_3790" fill="white">
<path d="M34 0C43.9411 0 52 8.05888 52 18V23.25C52 24.9069 50.6569 26.25 49 26.25H37.1719C35.515 26.25 34.1719 24.9069 34.1719 23.25V16.5C34.1719 15.6717 33.5001 15.0002 32.6719 15H19.3281C18.4999 15.0002 17.8281 15.6717 17.8281 16.5V43.3506C17.8281 44.6131 19.293 45.311 20.2734 44.5156L25.0547 40.6357C25.6055 40.1887 26.3945 40.1887 26.9453 40.6357L31.7266 44.5156C32.707 45.311 34.1719 44.6131 34.1719 43.3506V36.75C34.1719 35.0931 35.515 33.75 37.1719 33.75H49C50.6569 33.75 52 35.0931 52 36.75V42C52 51.9411 43.9411 60 34 60H18C8.05888 60 3.8658e-07 51.9411 0 42V18C3.8658e-07 8.05888 8.05888 4.58414e-07 18 0H34Z"/>
</mask>
<g filter="url(#filter0_i_167_3790)">
<path d="M34 0C43.9411 0 52 8.05888 52 18V23.25C52 24.9069 50.6569 26.25 49 26.25H37.1719C35.515 26.25 34.1719 24.9069 34.1719 23.25V16.5C34.1719 15.6717 33.5001 15.0002 32.6719 15H19.3281C18.4999 15.0002 17.8281 15.6717 17.8281 16.5V43.3506C17.8281 44.6131 19.293 45.311 20.2734 44.5156L25.0547 40.6357C25.6055 40.1887 26.3945 40.1887 26.9453 40.6357L31.7266 44.5156C32.707 45.311 34.1719 44.6131 34.1719 43.3506V36.75C34.1719 35.0931 35.515 33.75 37.1719 33.75H49C50.6569 33.75 52 35.0931 52 36.75V42C52 51.9411 43.9411 60 34 60H18C8.05888 60 3.8658e-07 51.9411 0 42V18C3.8658e-07 8.05888 8.05888 4.58414e-07 18 0H34Z" fill="url(#paint0_linear_167_3790)"/>
</g>
<path d="M52 18H52.75V18H52ZM34.1719 16.5H34.9219V16.5H34.1719ZM32.6719 15L32.6721 14.25H32.6719V15ZM19.3281 15V14.25H19.3279L19.3281 15ZM20.2734 44.5156L20.7459 45.0981L20.746 45.098L20.2734 44.5156ZM25.0547 40.6357L25.5273 41.2181L25.5273 41.2181L25.0547 40.6357ZM26.9453 40.6357L26.4727 41.2181L26.4727 41.2181L26.9453 40.6357ZM31.7266 44.5156L31.254 45.098L31.2541 45.0981L31.7266 44.5156ZM52 42H52.75V42H52ZM18 60V60.75V60.75V60ZM0 42H-0.75V42H0ZM0 18H-0.75V18H0ZM18 0V-0.75V-0.75V0ZM34 0V0.75C43.5269 0.75 51.25 8.47309 51.25 18H52H52.75C52.75 7.64466 44.3553 -0.75 34 -0.75V0ZM52 18H51.25V23.25H52H52.75V18H52ZM49 26.25V25.5H37.1719V26.25V27H49V26.25ZM34.1719 23.25H34.9219V16.5H34.1719H33.4219V23.25H34.1719ZM34.1719 16.5H34.9219C34.9219 15.2573 33.9141 14.2504 32.6721 14.25L32.6719 15L32.6717 15.75C33.0861 15.7501 33.4219 16.0862 33.4219 16.5H34.1719ZM32.6719 15V14.25H19.3281V15V15.75H32.6719V15ZM19.3281 15L19.3279 14.25C18.0859 14.2504 17.0781 15.2573 17.0781 16.5H17.8281H18.5781C18.5781 16.0862 18.9139 15.7501 19.3283 15.75L19.3281 15ZM17.8281 16.5H17.0781V43.3506H17.8281H18.5781V16.5H17.8281ZM17.8281 43.3506H17.0781C17.0781 45.2444 19.2753 46.2911 20.7459 45.0981L20.2734 44.5156L19.8009 43.9332C19.3107 44.3309 18.5781 43.9818 18.5781 43.3506H17.8281ZM20.2734 44.5156L20.746 45.098L25.5273 41.2181L25.0547 40.6357L24.5821 40.0534L19.8009 43.9333L20.2734 44.5156ZM25.0547 40.6357L25.5273 41.2181C25.8027 40.9946 26.1973 40.9946 26.4727 41.2181L26.9453 40.6357L27.4179 40.0534C26.5916 39.3828 25.4084 39.3828 24.5821 40.0534L25.0547 40.6357ZM26.9453 40.6357L26.4727 41.2181L31.254 45.098L31.7266 44.5156L32.1992 43.9333L27.4179 40.0534L26.9453 40.6357ZM31.7266 44.5156L31.2541 45.0981C32.7247 46.2911 34.9219 45.2444 34.9219 43.3506H34.1719H33.4219C33.4219 43.9818 32.6893 44.3309 32.1991 43.9332L31.7266 44.5156ZM34.1719 43.3506H34.9219V36.75H34.1719H33.4219V43.3506H34.1719ZM37.1719 33.75V34.5H49V33.75V33H37.1719V33.75ZM52 36.75H51.25V42H52H52.75V36.75H52ZM52 42H51.25C51.25 51.5269 43.5269 59.25 34 59.25V60V60.75C44.3553 60.75 52.75 52.3553 52.75 42H52ZM34 60V59.25H18V60V60.75H34V60ZM18 60V59.25C8.47309 59.25 0.75 51.5269 0.75 42H0H-0.75C-0.75 52.3553 7.64466 60.75 18 60.75V60ZM0 42H0.75V18H0H-0.75V42H0ZM0 18H0.75C0.75 8.47309 8.47309 0.75 18 0.75V0V-0.75C7.64466 -0.75 -0.75 7.64466 -0.75 18H0ZM18 0V0.75H34V0V-0.75H18V0ZM49 33.75V34.5C50.2426 34.5 51.25 35.5074 51.25 36.75H52H52.75C52.75 34.6789 51.0711 33 49 33V33.75ZM34.1719 36.75H34.9219C34.9219 35.5074 35.9292 34.5 37.1719 34.5V33.75V33C35.1008 33 33.4219 34.6789 33.4219 36.75H34.1719ZM37.1719 26.25V25.5C35.9292 25.5 34.9219 24.4926 34.9219 23.25H34.1719H33.4219C33.4219 25.3211 35.1008 27 37.1719 27V26.25ZM52 23.25H51.25C51.25 24.4926 50.2426 25.5 49 25.5V26.25V27C51.0711 27 52.75 25.3211 52.75 23.25H52Z" fill="#262626" mask="url(#path-1-inside-1_167_3790)"/>
<defs>
<filter id="filter0_i_167_3790" x="0" y="0" width="52" height="60.375" filterUnits="userSpaceOnUse" color-interpolation-filters="sRGB">
<feFlood flood-opacity="0" result="BackgroundImageFix"/>
<feBlend mode="normal" in="SourceGraphic" in2="BackgroundImageFix" result="shape"/>
<feColorMatrix in="SourceAlpha" type="matrix" values="0 0 0 0 0 0 0 0 0 0 0 0 0 0 0 0 0 0 127 0" result="hardAlpha"/>
<feOffset dy="1.5"/>
<feGaussianBlur stdDeviation="0.1875"/>
<feComposite in2="hardAlpha" operator="arithmetic" k2="-1" k3="1"/>
<feColorMatrix type="matrix" values="0 0 0 0 1 0 0 0 0 1 0 0 0 0 1 0 0 0 0.6 0"/>
<feBlend mode="normal" in2="shape" result="effect1_innerShadow_167_3790"/>
</filter>
<linearGradient id="paint0_linear_167_3790" x1="26" y1="0" x2="26" y2="60" gradientUnits="userSpaceOnUse">
<stop stop-color="#595959"/>
<stop offset="1" stop-color="#262626"/>
</linearGradient>
</defs>
</svg>
