<svg width="100" height="108" viewBox="0 0 100 108" fill="none" xmlns="http://www.w3.org/2000/svg">
<g clip-path="url(#clip0_517_710)">
<path d="M99.7687 107.534C99.8304 107.658 99.8304 107.767 99.7687 107.86C99.707 107.953 99.6068 108 99.468 108H96.9931C96.8543 108 96.7155 107.953 96.5768 107.86C96.4534 107.767 96.3609 107.658 96.2992 107.534L93.6392 103.144H90.4936V107.487C90.4936 107.627 90.4396 107.751 90.3316 107.86C90.2391 107.953 90.1235 108 89.9847 108H87.8105C87.6717 108 87.5483 107.953 87.4404 107.86C87.3479 107.751 87.3016 107.627 87.3016 107.487V92.5131C87.3016 92.3732 87.3479 92.2566 87.4404 92.1633C87.5483 92.0544 87.6717 92 87.8105 92H95.906C96.4765 92 97.0085 92.1088 97.502 92.3265C97.9954 92.5442 98.4272 92.8397 98.7973 93.2128C99.1673 93.586 99.4603 94.0214 99.6762 94.519C99.8921 95.0165 100 95.553 100 96.1283V99.016C100 99.4824 99.9229 99.9334 99.7687 100.369C99.6299 100.789 99.4295 101.177 99.1673 101.535C98.9052 101.877 98.5891 102.172 98.219 102.421C97.8643 102.67 97.4711 102.857 97.0394 102.981L99.7687 107.534ZM95.906 99.9489C96.1681 99.9489 96.384 99.8634 96.5536 99.6923C96.7387 99.5058 96.8312 99.2803 96.8312 99.016V96.1283C96.8312 95.8639 96.7387 95.6463 96.5536 95.4752C96.384 95.2886 96.1681 95.1953 95.906 95.1953H90.4936V99.9489H95.906Z" fill="#333333"/>
<path d="M80.8266 92C81.3971 92 81.9291 92.109 82.4226 92.327C82.916 92.545 83.3478 92.8409 83.7178 93.2146C84.0879 93.5883 84.3809 94.0243 84.5968 94.5226C84.8127 95.0209 84.9206 95.5504 84.9206 96.1109V103.889C84.9206 104.45 84.8127 104.979 84.5968 105.477C84.3809 105.976 84.0879 106.412 83.7178 106.785C83.3478 107.159 82.916 107.455 82.4226 107.673C81.9291 107.891 81.3971 108 80.8266 108H76.3162C75.7457 108 75.2137 107.891 74.7202 107.673C74.2268 107.455 73.795 107.159 73.425 106.785C73.0549 106.412 72.7619 105.976 72.546 105.477C72.3301 104.979 72.2222 104.45 72.2222 103.889V96.1109C72.2222 95.5504 72.3301 95.0209 72.546 94.5226C72.7619 94.0243 73.0549 93.5883 73.425 93.2146C73.795 92.8409 74.2268 92.545 74.7202 92.327C75.2137 92.109 75.7457 92 76.3162 92H80.8266ZM81.7518 96.1109C81.7518 95.8462 81.6593 95.6282 81.4742 95.4569C81.3046 95.2856 81.0887 95.2 80.8266 95.2H76.3162C76.0541 95.2 75.8305 95.2856 75.6455 95.4569C75.4758 95.6282 75.391 95.8462 75.391 96.1109V103.889C75.391 104.154 75.4758 104.372 75.6455 104.543C75.8305 104.714 76.0541 104.8 76.3162 104.8H80.8266C81.0887 104.8 81.3046 104.714 81.4742 104.543C81.6593 104.372 81.7518 104.154 81.7518 103.889V96.1109Z" fill="#333333"/>
<path d="M70.126 92C70.2648 92 70.3805 92.0544 70.473 92.1633C70.5809 92.2566 70.6349 92.3732 70.6349 92.5131V94.7055C70.6349 94.8455 70.5809 94.9621 70.473 95.0554C70.3805 95.1487 70.2648 95.1953 70.126 95.1953H65.8701V107.487C65.8701 107.627 65.8161 107.751 65.7082 107.86C65.6157 107.953 65.5 108 65.3612 108H63.187C63.0482 108 62.9326 107.953 62.8401 107.86C62.7476 107.751 62.7013 107.627 62.7013 107.487V95.1953H58.4454C58.3066 95.1953 58.1832 95.1487 58.0753 95.0554C57.9828 94.9621 57.9365 94.8455 57.9365 94.7055V92.5131C57.9365 92.3732 57.9828 92.2566 58.0753 92.1633C58.1832 92.0544 58.3066 92 58.4454 92H70.126Z" fill="#333333"/>
<path d="M53.7498 92C53.8886 92 54.0197 92.0466 54.143 92.1399C54.2818 92.2332 54.3744 92.3421 54.4206 92.4665L57.7513 99.9833C57.7976 100.108 57.8362 100.271 57.867 100.473C57.9133 100.66 57.9364 100.823 57.9364 100.963V107.487C57.9364 107.627 57.8824 107.751 57.7745 107.86C57.682 107.953 57.5663 108 57.4275 108H55.2533C55.1145 108 54.9912 107.953 54.8832 107.86C54.7907 107.751 54.7444 107.627 54.7444 107.487V103.972H48.4068V107.487C48.4068 107.627 48.3528 107.751 48.2449 107.86C48.1524 107.953 48.0367 108 47.8979 108H45.7468C45.608 108 45.4847 107.953 45.3768 107.86C45.2842 107.751 45.238 107.627 45.238 107.487V100.963C45.238 100.823 45.2534 100.66 45.2842 100.473C45.3305 100.271 45.3768 100.108 45.423 99.9833L48.7306 92.4665C48.7923 92.3421 48.8848 92.2332 49.0082 92.1399C49.147 92.0466 49.2857 92 49.4245 92H53.7498ZM48.5224 100.776H54.6288L52.0845 95.1953H51.0667L48.5224 100.776Z" fill="#333333"/>
<path d="M42.6258 107.534C42.6875 107.658 42.6875 107.767 42.6258 107.86C42.5642 107.953 42.4639 108 42.3251 108H39.8502C39.7114 108 39.5727 107.953 39.4339 107.86C39.3105 107.767 39.218 107.658 39.1563 107.534L36.4964 103.144H33.3507V107.487C33.3507 107.627 33.2967 107.751 33.1888 107.86C33.0962 107.953 32.9806 108 32.8418 108H30.6676C30.5288 108 30.4054 107.953 30.2975 107.86C30.205 107.751 30.1587 107.627 30.1587 107.487V92.5131C30.1587 92.3732 30.205 92.2566 30.2975 92.1633C30.4054 92.0544 30.5288 92 30.6676 92H38.7631C39.3337 92 39.8656 92.1088 40.3591 92.3265C40.8525 92.5442 41.2843 92.8397 41.6544 93.2128C42.0245 93.586 42.3174 94.0214 42.5333 94.519C42.7492 95.0165 42.8571 95.553 42.8571 96.1283V99.016C42.8571 99.4824 42.78 99.9334 42.6258 100.369C42.4871 100.789 42.2866 101.177 42.0245 101.535C41.7623 101.877 41.4462 102.172 41.0761 102.421C40.7215 102.67 40.3282 102.857 39.8965 102.981L42.6258 107.534ZM38.7631 99.9489C39.0253 99.9489 39.2411 99.8634 39.4108 99.6923C39.5958 99.5058 39.6883 99.2803 39.6883 99.016V96.1283C39.6883 95.8639 39.5958 95.6463 39.4108 95.4752C39.2411 95.2886 39.0253 95.1953 38.7631 95.1953H33.3507V99.9489H38.7631Z" fill="#333333"/>
<path d="M19.1502 108C18.595 108 18.0708 107.891 17.5773 107.673C17.0839 107.456 16.6521 107.16 16.282 106.787C15.912 106.414 15.619 105.979 15.4031 105.481C15.1872 104.983 15.0793 104.447 15.0793 103.872V92.5131C15.0793 92.3732 15.1255 92.2566 15.2181 92.1633C15.326 92.0544 15.4494 92 15.5881 92H17.7392C17.878 92 17.9937 92.0544 18.0862 92.1633C18.1941 92.2566 18.2481 92.3732 18.2481 92.5131V103.872C18.2481 104.136 18.3329 104.362 18.5025 104.548C18.6876 104.719 18.9034 104.805 19.1502 104.805H23.6837C23.9458 104.805 24.1617 104.719 24.3313 104.548C24.5009 104.362 24.5857 104.136 24.5857 103.872V92.5131C24.5857 92.3732 24.632 92.2566 24.7245 92.1633C24.8325 92.0544 24.9558 92 25.0946 92H27.2688C27.4076 92 27.5233 92.0544 27.6158 92.1633C27.7237 92.2566 27.7777 92.3732 27.7777 92.5131V103.872C27.7777 104.447 27.6698 104.983 27.4539 105.481C27.238 105.979 26.945 106.414 26.5749 106.787C26.2048 107.16 25.7654 107.456 25.2565 107.673C24.7631 107.891 24.2388 108 23.6837 108H19.1502Z" fill="#333333"/>
<path d="M10.0385 98.4706C9.89967 98.4706 9.77631 98.424 9.66837 98.3307C9.57585 98.2219 9.52959 98.0975 9.52959 97.9575V96.1283C9.52959 95.8639 9.43707 95.6463 9.25203 95.4752C9.08241 95.2886 8.86653 95.1953 8.60439 95.1953H4.09402C3.83188 95.1953 3.616 95.2886 3.44638 95.4752C3.27676 95.6463 3.19195 95.8639 3.19195 96.1283V103.872C3.19195 104.136 3.27676 104.362 3.44638 104.548C3.616 104.719 3.83188 104.805 4.09402 104.805H8.60439C8.86653 104.805 9.08241 104.719 9.25203 104.548C9.43707 104.362 9.52959 104.136 9.52959 103.872V102.042C9.52959 101.903 9.57585 101.786 9.66837 101.693C9.77631 101.584 9.89967 101.529 10.0385 101.529H12.1896C12.3283 101.529 12.444 101.584 12.5365 101.693C12.6444 101.786 12.6984 101.903 12.6984 102.042V103.872C12.6984 104.447 12.5905 104.983 12.3746 105.481C12.1587 105.979 11.8657 106.414 11.4957 106.787C11.1256 107.16 10.6938 107.456 10.2004 107.673C9.70692 107.891 9.17493 108 8.60439 108H4.09402C3.5389 108 3.00691 107.891 2.49805 107.673C2.00461 107.456 1.57285 107.16 1.20276 106.787C0.832683 106.414 0.539702 105.979 0.323821 105.481C0.10794 104.983 0 104.447 0 103.872V96.1283C0 95.553 0.10794 95.0165 0.323821 94.519C0.539702 94.0214 0.832683 93.586 1.20276 93.2128C1.57285 92.8397 2.00461 92.5442 2.49805 92.3265C3.00691 92.1088 3.5389 92 4.09402 92H8.60439C9.17493 92 9.70692 92.1088 10.2004 92.3265C10.6938 92.5442 11.1256 92.8397 11.4957 93.2128C11.8657 93.586 12.1587 94.0214 12.3746 94.519C12.5905 95.0165 12.6984 95.553 12.6984 96.1283V97.9575C12.6984 98.0975 12.6444 98.2219 12.5365 98.3307C12.444 98.424 12.3283 98.4706 12.1896 98.4706H10.0385Z" fill="#333333"/>
<path d="M61 0C74.2548 0 85 10.7452 85 24V31C85 33.2091 83.2091 35 81 35H65C62.7909 35 61 33.2091 61 31V22C61 20.8954 60.1046 20 59 20H41C39.8954 20 39 20.8954 39 22V57.8262C39 59.5054 40.9442 60.4368 42.2529 59.3848L48.7471 54.165C49.4788 53.5769 50.5212 53.5769 51.2529 54.165L57.7471 59.3848C59.0558 60.4368 61 59.5054 61 57.8262V49C61 46.7909 62.7909 45 65 45H81C83.2091 45 85 46.7909 85 49V56C85 69.2548 74.2548 80 61 80H39C25.7452 80 15 69.2548 15 56V24C15 10.7452 25.7452 0 39 0H61Z" fill="url(#paint0_linear_517_710)"/>
<path fill-rule="evenodd" clip-rule="evenodd" d="M61 0C74.2548 0 85 10.7452 85 24V31L84.9951 31.2061C84.8913 33.2512 83.2512 34.8913 81.2061 34.9951L81 35H65C62.86 35 61.1121 33.3194 61.0049 31.2061L61 31V22C61 20.8954 60.1046 20 59 20H41C39.8954 20 39 20.8954 39 22V57.8262C39 59.5054 40.9442 60.4368 42.2529 59.3848L48.7471 54.165C49.4788 53.5769 50.5212 53.5769 51.2529 54.165L57.7471 59.3848C59.0558 60.4368 61 59.5054 61 57.8262V49C61 46.7909 62.7909 45 65 45H81L81.2061 45.0049C83.3194 45.1121 85 46.86 85 49V56C85 69.2548 74.2548 80 61 80H39C25.7452 80 15 69.2548 15 56V24C15 10.7452 25.7452 3.54342e-07 39 0H61ZM39 2C26.8497 2 17 11.8497 17 24V56C17 68.1503 26.8497 78 39 78H61C73.1503 78 83 68.1503 83 56V49C83 47.8954 82.1046 47 81 47H65C63.8954 47 63 47.8954 63 49V57.8262C63 61.1849 59.1114 63.0472 56.4941 60.9434L50 55.7236L43.5059 60.9434C40.8886 63.0472 37 61.1849 37 57.8262V22C37 19.7909 38.7909 18 41 18H59C61.2091 18 63 19.7909 63 22V31C63 32.1046 63.8954 33 65 33H81C82.1046 33 83 32.1046 83 31V24C83 11.8497 73.1503 2 61 2H39Z" fill="#262626"/>
<path opacity="0.6" d="M23.579 8.42848C24.2939 7.84119 25.0352 7.29014 25.8013 6.78136C29.4353 4.3471 33.7021 2.94539 38 2.99996C38.8668 3.0065 39.7337 3.00977 40.6005 3.00977C46.7877 3.00977 52.9748 3.00977 59.162 3.00977C59.7747 3.00977 60.3873 3.0081 61 3.00474C65.4656 2.98699 69.9652 4.18682 73.8345 6.56908C74.6154 7.05254 75.3691 7.58712 76.0842 8.17357C75.4373 7.51267 74.7355 6.89942 73.9928 6.3383C70.3113 3.56496 65.6666 2.04223 61 2.01481C60.3873 2.01145 59.7747 2.00977 59.162 2.00977C52.9748 2.00977 46.7877 2.00977 40.6005 2.00977C39.7337 2.00977 38.8668 2.01305 38 2.01959C33.4792 2.02527 29.0636 3.76845 25.638 6.55843C24.9135 7.14174 24.2267 7.76778 23.579 8.42848Z" fill="white"/>
<path opacity="0.6" d="M83.0489 49.5305C83.0622 49.4732 83.0751 49.4158 83.0876 49.3585C83.1583 49.0331 83.1354 48.6723 83.0104 48.3362C82.7474 47.59 81.9498 47.0131 81.1001 47.0176C81.0424 47.0169 80.9847 47.0166 80.927 47.0166C79.8914 47.0166 78.8557 47.0166 77.8201 47.0166C76.226 47.0166 74.632 47.0166 73.0379 47.0166C71.3984 47.0166 69.7588 47.0166 68.1192 47.0166C67.1062 47.0166 66.0932 47.0166 65.0801 47.0166C65.0086 47.0166 64.9377 47.0196 64.8665 47.0256C64.1824 47.0814 63.6318 47.5758 63.3113 48.084C63.2467 48.1834 63.1899 48.2864 63.1414 48.3923C62.9739 48.7561 62.9081 49.1536 62.9501 49.5305C62.9906 49.1536 63.1309 48.7995 63.3495 48.5161C63.4129 48.4336 63.4827 48.3571 63.5576 48.2875C63.9562 47.9192 64.4858 47.8432 64.9325 47.8087C64.9816 47.8046 65.0305 47.8025 65.0801 47.8025C66.0932 47.8025 67.1062 47.8025 68.1192 47.8025C69.7588 47.8025 71.3984 47.8025 73.0379 47.8025C74.632 47.8025 76.226 47.8025 77.8201 47.8025C78.8557 47.8025 79.8914 47.8025 80.927 47.8025C80.9847 47.8025 81.0424 47.8022 81.1001 47.8015C81.6599 47.7912 82.2349 48.0418 82.6272 48.5416C82.8046 48.7679 82.9405 49.0449 83.0102 49.3585C83.0228 49.4158 83.0357 49.4732 83.0489 49.5305Z" fill="white"/>
</g>
<defs>
<linearGradient id="paint0_linear_517_710" x1="50" y1="0" x2="50" y2="80" gradientUnits="userSpaceOnUse">
<stop stop-color="#595959"/>
<stop offset="1" stop-color="#262626"/>
</linearGradient>
<clipPath id="clip0_517_710">
<rect width="100" height="108" fill="white"/>
</clipPath>
</defs>
</svg>
