<svg width="52" height="60" viewBox="0 0 52 60" fill="none" xmlns="http://www.w3.org/2000/svg">
<mask id="path-1-inside-1_515_2401" fill="white">
<path d="M34 0C43.9411 2.57703e-07 52 8.05888 52 18V23.25C52 24.9069 50.6569 26.25 49 26.25H37.1719C35.515 26.25 34.1719 24.9069 34.1719 23.25V16.5C34.1719 15.6717 33.5001 15.0002 32.6719 15H19.3281C18.4999 15.0002 17.8281 15.6717 17.8281 16.5V43.3506C17.8281 44.6131 19.293 45.311 20.2734 44.5156L25.0547 40.6357C25.6055 40.1887 26.3945 40.1887 26.9453 40.6357L31.7266 44.5156C32.707 45.311 34.1719 44.6131 34.1719 43.3506V36.75C34.1719 35.0931 35.515 33.75 37.1719 33.75H49C50.6569 33.75 52 35.0931 52 36.75V42C52 51.9411 43.9411 60 34 60H18C8.05888 60 3.8658e-07 51.9411 0 42V18C3.8658e-07 8.05888 8.05888 2.57703e-07 18 0H34Z"/>
</mask>
<path d="M34 0C43.9411 2.57703e-07 52 8.05888 52 18V23.25C52 24.9069 50.6569 26.25 49 26.25H37.1719C35.515 26.25 34.1719 24.9069 34.1719 23.25V16.5C34.1719 15.6717 33.5001 15.0002 32.6719 15H19.3281C18.4999 15.0002 17.8281 15.6717 17.8281 16.5V43.3506C17.8281 44.6131 19.293 45.311 20.2734 44.5156L25.0547 40.6357C25.6055 40.1887 26.3945 40.1887 26.9453 40.6357L31.7266 44.5156C32.707 45.311 34.1719 44.6131 34.1719 43.3506V36.75C34.1719 35.0931 35.515 33.75 37.1719 33.75H49C50.6569 33.75 52 35.0931 52 36.75V42C52 51.9411 43.9411 60 34 60H18C8.05888 60 3.8658e-07 51.9411 0 42V18C3.8658e-07 8.05888 8.05888 2.57703e-07 18 0H34Z" fill="url(#paint0_linear_515_2401)"/>
<path d="M34 0V-1.5V-1.5V0ZM52 18H53.5V18H52ZM34.1719 16.5H35.6719V16.5H34.1719ZM32.6719 15L32.6723 13.5H32.6719V15ZM19.3281 15V13.5H19.3277L19.3281 15ZM20.2734 44.5156L21.2184 45.6805L21.2186 45.6804L20.2734 44.5156ZM25.0547 40.6357L25.9999 41.8005L25.9999 41.8004L25.0547 40.6357ZM26.9453 40.6357L26.0001 41.8004L26.0001 41.8005L26.9453 40.6357ZM31.7266 44.5156L30.7814 45.6804L30.7816 45.6805L31.7266 44.5156ZM52 42H53.5V42H52ZM34 60V61.5V61.5V60ZM18 60V61.5V61.5V60ZM0 42H-1.5V42H0ZM0 18H-1.5V18H0ZM18 0V-1.5V-1.5V0ZM34 0V1.5C43.1127 1.5 50.5 8.8873 50.5 18H52H53.5C53.5 7.23045 44.7696 -1.5 34 -1.5V0ZM52 18H50.5V23.25H52H53.5V18H52ZM49 26.25V24.75H37.1719V26.25V27.75H49V26.25ZM34.1719 23.25H35.6719V16.5H34.1719H32.6719V23.25H34.1719ZM34.1719 16.5H35.6719C35.6719 14.8429 34.3282 13.5005 32.6723 13.5L32.6719 15L32.6714 16.5H32.6719H34.1719ZM32.6719 15V13.5H19.3281V15V16.5H32.6719V15ZM19.3281 15L19.3277 13.5C17.6718 13.5005 16.3281 14.8429 16.3281 16.5H17.8281H19.3281H19.3286L19.3281 15ZM17.8281 16.5H16.3281V43.3506H17.8281H19.3281V16.5H17.8281ZM17.8281 43.3506H16.3281C16.3281 45.8758 19.2576 47.2712 21.2184 45.6805L20.2734 44.5156L19.3284 43.3507L19.3281 43.3506H17.8281ZM20.2734 44.5156L21.2186 45.6804L25.9999 41.8005L25.0547 40.6357L24.1095 39.471L19.3283 43.3509L20.2734 44.5156ZM25.0547 40.6357L25.9999 41.8004H26.0001L26.9453 40.6357L27.8905 39.471C26.7888 38.5769 25.2112 38.5769 24.1095 39.471L25.0547 40.6357ZM26.9453 40.6357L26.0001 41.8005L30.7814 45.6804L31.7266 44.5156L32.6717 43.3509L27.8905 39.471L26.9453 40.6357ZM31.7266 44.5156L30.7816 45.6805C32.7424 47.2712 35.6719 45.8758 35.6719 43.3506H34.1719H32.6719L32.6716 43.3507L31.7266 44.5156ZM34.1719 43.3506H35.6719V36.75H34.1719H32.6719V43.3506H34.1719ZM37.1719 33.75V35.25H49V33.75V32.25H37.1719V33.75ZM52 36.75H50.5V42H52H53.5V36.75H52ZM52 42H50.5C50.5 51.1127 43.1127 58.5 34 58.5V60V61.5C44.7696 61.5 53.5 52.7696 53.5 42H52ZM34 60V58.5H18V60V61.5H34V60ZM18 60V58.5C8.8873 58.5 1.5 51.1127 1.5 42H0H-1.5C-1.5 52.7696 7.23045 61.5 18 61.5V60ZM0 42H1.5V18H0H-1.5V42H0ZM0 18H1.5C1.5 8.8873 8.8873 1.5 18 1.5V0V-1.5C7.23045 -1.5 -1.5 7.23045 -1.5 18H0ZM18 0V1.5H34V0V-1.5H18V0ZM49 33.75V35.25C49.8284 35.25 50.5 35.9216 50.5 36.75H52H53.5C53.5 34.2647 51.4853 32.25 49 32.25V33.75ZM34.1719 36.75H35.6719C35.6719 35.9216 36.3434 35.25 37.1719 35.25V33.75V32.25C34.6866 32.25 32.6719 34.2647 32.6719 36.75H34.1719ZM37.1719 26.25V24.75C36.3434 24.75 35.6719 24.0784 35.6719 23.25H34.1719H32.6719C32.6719 25.7353 34.6866 27.75 37.1719 27.75V26.25ZM52 23.25H50.5C50.5 24.0784 49.8284 24.75 49 24.75V26.25V27.75C51.4853 27.75 53.5 25.7353 53.5 23.25H52Z" fill="#262626" mask="url(#path-1-inside-1_515_2401)"/>
<path opacity="0.6" d="M50.4758 37.0071C50.5112 36.7339 50.4727 36.4368 50.3434 36.1645C50.1347 35.7072 49.64 35.3339 49.0766 35.3073C49.0562 35.3059 49.0358 35.3046 49.0153 35.3034C48.9429 35.2989 48.8705 35.2956 48.798 35.2935C48.0451 35.272 47.2923 35.2637 46.5394 35.2585C45.3805 35.2506 44.2217 35.2411 43.0629 35.2411C41.871 35.2411 40.679 35.2657 39.4871 35.276C38.7069 35.2828 37.9266 35.2849 37.1464 35.2935C37.114 35.2939 37.0816 35.295 37.0492 35.2968C36.5771 35.3159 36.1779 35.6245 35.9399 35.9578C35.888 36.0283 35.8423 36.1021 35.8034 36.1785C35.6689 36.4407 35.6163 36.7332 35.65 37.0071C35.6823 36.7331 35.7944 36.479 35.9646 36.2859C36.0139 36.2297 36.0679 36.1786 36.1255 36.1334C36.4071 35.9127 36.7614 35.8957 37.0492 35.919C37.0816 35.9208 37.114 35.9219 37.1464 35.9223C37.9266 35.931 38.7069 35.933 39.4871 35.9398C40.679 35.9502 41.871 35.9748 43.0629 35.9748C44.2217 35.9748 45.3805 35.9652 46.5394 35.9573C47.2923 35.9521 48.0451 35.9438 48.798 35.9223C48.8705 35.9202 48.9429 35.9169 49.0153 35.9125C49.0358 35.9112 49.0562 35.9099 49.0766 35.9085C49.4343 35.874 49.8436 35.9882 50.1402 36.2999C50.3155 36.4828 50.4417 36.7325 50.4758 37.0071Z" fill="white"/>
<path opacity="0.6" d="M6.26415 6.44902C6.79129 6.00129 7.35184 5.59405 7.93122 5.22463C10.9602 3.32468 14.4883 2.25492 18 2.24383C18.34 2.24518 18.6801 2.24585 19.0201 2.24585C23.6523 2.24585 28.2844 2.24585 32.9166 2.24585C33.2777 2.24585 33.6389 2.24507 34 2.24351C37.4353 2.24342 40.9029 3.18321 43.8713 5.03182C44.4527 5.39815 45.0133 5.80414 45.5411 6.25185C45.0653 5.74915 44.5439 5.28418 43.9913 4.85969C41.1663 2.70901 37.5948 1.52572 34 1.49819C33.6389 1.49663 33.2777 1.49585 32.9166 1.49585C28.2844 1.49585 23.6523 1.49585 19.0201 1.49585C18.6801 1.49585 18.34 1.49652 18 1.49787C14.3058 1.53719 10.6933 2.85321 7.81184 5.05519C7.26167 5.48169 6.73996 5.94702 6.26415 6.44902Z" fill="white"/>
<defs>
<linearGradient id="paint0_linear_515_2401" x1="26" y1="0" x2="26" y2="60" gradientUnits="userSpaceOnUse">
<stop stop-color="#595959"/>
<stop offset="1" stop-color="#262626"/>
</linearGradient>
</defs>
</svg>
