<svg width="100" height="108" viewBox="0 0 100 108" fill="none" xmlns="http://www.w3.org/2000/svg">
<path d="M99.7687 107.534C99.8304 107.658 99.8304 107.767 99.7687 107.86C99.707 107.953 99.6068 108 99.468 108H96.9931C96.8543 108 96.7155 107.953 96.5768 107.86C96.4534 107.767 96.3609 107.658 96.2992 107.534L93.6392 103.144H90.4936V107.487C90.4936 107.627 90.4396 107.751 90.3316 107.86C90.2391 107.953 90.1235 108 89.9847 108H87.8105C87.6717 108 87.5483 107.953 87.4404 107.86C87.3479 107.751 87.3016 107.627 87.3016 107.487V92.5131C87.3016 92.3732 87.3479 92.2566 87.4404 92.1633C87.5483 92.0544 87.6717 92 87.8105 92H95.906C96.4765 92 97.0085 92.1088 97.502 92.3265C97.9954 92.5442 98.4272 92.8397 98.7973 93.2128C99.1673 93.586 99.4603 94.0214 99.6762 94.519C99.8921 95.0165 100 95.553 100 96.1283V99.016C100 99.4824 99.9229 99.9334 99.7687 100.369C99.6299 100.789 99.4295 101.177 99.1673 101.535C98.9052 101.877 98.5891 102.172 98.219 102.421C97.8643 102.67 97.4711 102.857 97.0394 102.981L99.7687 107.534ZM95.906 99.9489C96.1681 99.9489 96.384 99.8634 96.5536 99.6923C96.7387 99.5058 96.8312 99.2803 96.8312 99.016V96.1283C96.8312 95.8639 96.7387 95.6463 96.5536 95.4752C96.384 95.2886 96.1681 95.1953 95.906 95.1953H90.4936V99.9489H95.906Z" fill="#333333"/>
<path d="M80.8266 92C81.3971 92 81.9291 92.109 82.4226 92.327C82.916 92.545 83.3478 92.8409 83.7178 93.2146C84.0879 93.5883 84.3809 94.0243 84.5968 94.5226C84.8127 95.0209 84.9206 95.5504 84.9206 96.1109V103.889C84.9206 104.45 84.8127 104.979 84.5968 105.477C84.3809 105.976 84.0879 106.412 83.7178 106.785C83.3478 107.159 82.916 107.455 82.4226 107.673C81.9291 107.891 81.3971 108 80.8266 108H76.3162C75.7457 108 75.2137 107.891 74.7202 107.673C74.2268 107.455 73.795 107.159 73.425 106.785C73.0549 106.412 72.7619 105.976 72.546 105.477C72.3301 104.979 72.2222 104.45 72.2222 103.889V96.1109C72.2222 95.5504 72.3301 95.0209 72.546 94.5226C72.7619 94.0243 73.0549 93.5883 73.425 93.2146C73.795 92.8409 74.2268 92.545 74.7202 92.327C75.2137 92.109 75.7457 92 76.3162 92H80.8266ZM81.7518 96.1109C81.7518 95.8462 81.6593 95.6282 81.4742 95.4569C81.3046 95.2856 81.0887 95.2 80.8266 95.2H76.3162C76.0541 95.2 75.8305 95.2856 75.6455 95.4569C75.4758 95.6282 75.391 95.8462 75.391 96.1109V103.889C75.391 104.154 75.4758 104.372 75.6455 104.543C75.8305 104.714 76.0541 104.8 76.3162 104.8H80.8266C81.0887 104.8 81.3046 104.714 81.4742 104.543C81.6593 104.372 81.7518 104.154 81.7518 103.889V96.1109Z" fill="#333333"/>
<path d="M70.126 92C70.2648 92 70.3805 92.0544 70.473 92.1633C70.5809 92.2566 70.6349 92.3732 70.6349 92.5131V94.7055C70.6349 94.8455 70.5809 94.9621 70.473 95.0554C70.3805 95.1487 70.2648 95.1953 70.126 95.1953H65.8701V107.487C65.8701 107.627 65.8161 107.751 65.7082 107.86C65.6157 107.953 65.5 108 65.3612 108H63.187C63.0482 108 62.9326 107.953 62.8401 107.86C62.7476 107.751 62.7013 107.627 62.7013 107.487V95.1953H58.4454C58.3066 95.1953 58.1832 95.1487 58.0753 95.0554C57.9828 94.9621 57.9365 94.8455 57.9365 94.7055V92.5131C57.9365 92.3732 57.9828 92.2566 58.0753 92.1633C58.1832 92.0544 58.3066 92 58.4454 92H70.126Z" fill="#333333"/>
<path d="M53.7499 92C53.8887 92 54.0198 92.0466 54.1431 92.1399C54.2819 92.2332 54.3745 92.3421 54.4207 92.4665L57.7514 99.9833C57.7977 100.108 57.8363 100.271 57.8671 100.473C57.9134 100.66 57.9365 100.823 57.9365 100.963V107.487C57.9365 107.627 57.8825 107.751 57.7746 107.86C57.6821 107.953 57.5664 108 57.4276 108H55.2534C55.1146 108 54.9913 107.953 54.8833 107.86C54.7908 107.751 54.7445 107.627 54.7445 107.487V103.972H48.4069V107.487C48.4069 107.627 48.3529 107.751 48.245 107.86C48.1525 107.953 48.0368 108 47.898 108H45.7469C45.6081 108 45.4848 107.953 45.3769 107.86C45.2843 107.751 45.2381 107.627 45.2381 107.487L45.2381 100.963C45.2381 100.823 45.2535 100.66 45.2843 100.473C45.3306 100.271 45.3769 100.108 45.4231 99.9833L48.7307 92.4665C48.7924 92.3421 48.8849 92.2332 49.0083 92.1399C49.1471 92.0466 49.2858 92 49.4246 92H53.7499ZM48.5225 100.776H54.6289L52.0846 95.1953H51.0668L48.5225 100.776Z" fill="#333333"/>
<path d="M42.6258 107.534C42.6875 107.658 42.6875 107.767 42.6258 107.86C42.5642 107.953 42.4639 108 42.3251 108H39.8502C39.7114 108 39.5727 107.953 39.4339 107.86C39.3105 107.767 39.218 107.658 39.1563 107.534L36.4964 103.144H33.3507V107.487C33.3507 107.627 33.2967 107.751 33.1888 107.86C33.0962 107.953 32.9806 108 32.8418 108H30.6676C30.5288 108 30.4054 107.953 30.2975 107.86C30.205 107.751 30.1587 107.627 30.1587 107.487V92.5131C30.1587 92.3732 30.205 92.2566 30.2975 92.1633C30.4054 92.0544 30.5288 92 30.6676 92H38.7631C39.3337 92 39.8656 92.1088 40.3591 92.3265C40.8525 92.5442 41.2843 92.8397 41.6544 93.2128C42.0245 93.586 42.3174 94.0214 42.5333 94.519C42.7492 95.0165 42.8571 95.553 42.8571 96.1283V99.016C42.8571 99.4824 42.78 99.9334 42.6258 100.369C42.4871 100.789 42.2866 101.177 42.0245 101.535C41.7623 101.877 41.4462 102.172 41.0761 102.421C40.7215 102.67 40.3282 102.857 39.8965 102.981L42.6258 107.534ZM38.7631 99.9489C39.0253 99.9489 39.2411 99.8634 39.4108 99.6923C39.5958 99.5058 39.6883 99.2803 39.6883 99.016V96.1283C39.6883 95.8639 39.5958 95.6463 39.4108 95.4752C39.2411 95.2886 39.0253 95.1953 38.7631 95.1953H33.3507V99.9489H38.7631Z" fill="#333333"/>
<path d="M19.1503 108C18.5951 108 18.0709 107.891 17.5774 107.673C17.084 107.456 16.6522 107.16 16.2821 106.787C15.9121 106.414 15.6191 105.979 15.4032 105.481C15.1873 104.983 15.0794 104.447 15.0794 103.872V92.5131C15.0794 92.3732 15.1256 92.2566 15.2182 92.1633C15.3261 92.0544 15.4495 92 15.5882 92H17.7393C17.8781 92 17.9938 92.0544 18.0863 92.1633C18.1942 92.2566 18.2482 92.3732 18.2482 92.5131V103.872C18.2482 104.136 18.333 104.362 18.5026 104.548C18.6877 104.719 18.9035 104.805 19.1503 104.805H23.6838C23.9459 104.805 24.1618 104.719 24.3314 104.548C24.501 104.362 24.5858 104.136 24.5858 103.872V92.5131C24.5858 92.3732 24.6321 92.2566 24.7246 92.1633C24.8326 92.0544 24.9559 92 25.0947 92H27.2689C27.4077 92 27.5234 92.0544 27.6159 92.1633C27.7238 92.2566 27.7778 92.3732 27.7778 92.5131V103.872C27.7778 104.447 27.6699 104.983 27.454 105.481C27.2381 105.979 26.9451 106.414 26.575 106.787C26.2049 107.16 25.7655 107.456 25.2566 107.673C24.7632 107.891 24.2389 108 23.6838 108H19.1503Z" fill="#333333"/>
<path d="M10.0385 98.4706C9.89967 98.4706 9.77631 98.424 9.66837 98.3307C9.57585 98.2219 9.52959 98.0975 9.52959 97.9575V96.1283C9.52959 95.8639 9.43707 95.6463 9.25203 95.4752C9.08241 95.2886 8.86653 95.1953 8.60439 95.1953H4.09402C3.83188 95.1953 3.616 95.2886 3.44638 95.4752C3.27676 95.6463 3.19195 95.8639 3.19195 96.1283V103.872C3.19195 104.136 3.27676 104.362 3.44638 104.548C3.616 104.719 3.83188 104.805 4.09402 104.805H8.60439C8.86653 104.805 9.08241 104.719 9.25203 104.548C9.43707 104.362 9.52959 104.136 9.52959 103.872V102.042C9.52959 101.903 9.57585 101.786 9.66837 101.693C9.77631 101.584 9.89967 101.529 10.0385 101.529H12.1896C12.3283 101.529 12.444 101.584 12.5365 101.693C12.6444 101.786 12.6984 101.903 12.6984 102.042V103.872C12.6984 104.447 12.5905 104.983 12.3746 105.481C12.1587 105.979 11.8657 106.414 11.4957 106.787C11.1256 107.16 10.6938 107.456 10.2004 107.673C9.70692 107.891 9.17493 108 8.60439 108H4.09402C3.5389 108 3.00691 107.891 2.49805 107.673C2.00461 107.456 1.57285 107.16 1.20276 106.787C0.832683 106.414 0.539702 105.979 0.323821 105.481C0.10794 104.983 0 104.447 0 103.872V96.1283C0 95.553 0.10794 95.0165 0.323821 94.519C0.539702 94.0214 0.832683 93.586 1.20276 93.2128C1.57285 92.8397 2.00461 92.5442 2.49805 92.3265C3.00691 92.1088 3.5389 92 4.09402 92H8.60439C9.17493 92 9.70692 92.1088 10.2004 92.3265C10.6938 92.5442 11.1256 92.8397 11.4957 93.2128C11.8657 93.586 12.1587 94.0214 12.3746 94.519C12.5905 95.0165 12.6984 95.553 12.6984 96.1283V97.9575C12.6984 98.0975 12.6444 98.2219 12.5365 98.3307C12.444 98.424 12.3283 98.4706 12.1896 98.4706H10.0385Z" fill="#333333"/>
<mask id="path-8-inside-1_219_347" fill="white">
<path d="M61 0C74.2549 0 85 10.7452 85 24V31C85 33.2091 83.2092 35 81 35H65C62.7909 35 61 33.2091 61 31V22C61 20.8954 60.1046 20 59 20H41C39.8955 20 39 20.8954 39 22V57.8262C39 59.5054 40.9442 60.4368 42.253 59.3848L48.7471 54.165C49.4789 53.5769 50.5212 53.5769 51.253 54.165L57.7471 59.3848C59.0559 60.4368 61 59.5054 61 57.8262V49C61 46.7909 62.7909 45 65 45H81C83.2092 45 85 46.7909 85 49V56C85 69.2548 74.2549 80 61 80H39C25.7452 80 15 69.2548 15 56V24C15 10.7452 25.7452 3.54342e-07 39 0H61Z"/>
</mask>
<g filter="url(#filter0_i_219_347)">
<path d="M61 0C74.2549 0 85 10.7452 85 24V31C85 33.2091 83.2092 35 81 35H65C62.7909 35 61 33.2091 61 31V22C61 20.8954 60.1046 20 59 20H41C39.8955 20 39 20.8954 39 22V57.8262C39 59.5054 40.9442 60.4368 42.253 59.3848L48.7471 54.165C49.4789 53.5769 50.5212 53.5769 51.253 54.165L57.7471 59.3848C59.0559 60.4368 61 59.5054 61 57.8262V49C61 46.7909 62.7909 45 65 45H81C83.2092 45 85 46.7909 85 49V56C85 69.2548 74.2549 80 61 80H39C25.7452 80 15 69.2548 15 56V24C15 10.7452 25.7452 3.54342e-07 39 0H61Z" fill="url(#paint0_linear_219_347)"/>
</g>
<path d="M85 24H86V24H85ZM41 20V19V20ZM42.253 59.3848L41.6265 58.6053L41.6264 58.6054L42.253 59.3848ZM48.7471 54.165L48.1206 53.3856L48.1206 53.3856L48.7471 54.165ZM51.253 54.165L51.8794 53.3856L51.8794 53.3856L51.253 54.165ZM57.7471 59.3848L58.3736 58.6054L58.3736 58.6053L57.7471 59.3848ZM85 56H86V56H85ZM61 80V81V81V80ZM15 56H14V56H15ZM15 24H14V24H15ZM39 0V-1V-1V0ZM61 0V1C73.7026 1 84 11.2975 84 24H85H86C86 10.1929 74.8071 -1 61 -1V0ZM85 24H84V31H85H86V24H85ZM81 35V34H65V35V36H81V35ZM61 31H62V22H61H60V31H61ZM61 22H62C62 20.3431 60.6569 19 59 19V20V21C59.5523 21 60 21.4477 60 22H61ZM59 20V19H41V20V21H59V20ZM41 20V19C39.3432 19 38 20.3431 38 22H39H40C40 21.4477 40.4477 21 41 21V20ZM39 22H38V57.8262H39H40V22H39ZM39 57.8262H38C38 60.3451 40.9165 61.7421 42.8795 60.1642L42.253 59.3848L41.6264 58.6054C40.9719 59.1315 40 58.6656 40 57.8262H39ZM42.253 59.3848L42.8794 60.1642L49.3736 54.9445L48.7471 54.165L48.1206 53.3856L41.6265 58.6053L42.253 59.3848ZM48.7471 54.165L49.3736 54.9445C49.7394 54.6504 50.2606 54.6504 50.6265 54.9445L51.253 54.165L51.8794 53.3856C50.7818 52.5034 49.2183 52.5034 48.1206 53.3856L48.7471 54.165ZM51.253 54.165L50.6265 54.9445L57.1206 60.1642L57.7471 59.3848L58.3736 58.6053L51.8794 53.3856L51.253 54.165ZM57.7471 59.3848L57.1206 60.1642C59.0836 61.7421 62 60.3451 62 57.8262H61H60C60 58.6656 59.0281 59.1315 58.3736 58.6054L57.7471 59.3848ZM61 57.8262H62V49H61H60V57.8262H61ZM65 45V46H81V45V44H65V45ZM85 49H84V56H85H86V49H85ZM85 56H84C84 68.7025 73.7026 79 61 79V80V81C74.8071 81 86 69.8071 86 56H85ZM61 80V79H39V80V81H61V80ZM39 80V79C26.2975 79 16 68.7025 16 56H15H14C14 69.8071 25.1929 81 39 81V80ZM15 56H16V24H15H14V56H15ZM15 24H16C16 11.2975 26.2975 1 39 1V0V-1C25.1929 -1 14 10.1929 14 24H15ZM39 0V1H61V0V-1H39V0ZM81 45V46C82.6569 46 84 47.3431 84 49H85H86C86 46.2386 83.7615 44 81 44V45ZM61 49H62C62 47.3431 63.3432 46 65 46V45V44C62.2386 44 60 46.2386 60 49H61ZM65 35V34C63.3432 34 62 32.6569 62 31H61H60C60 33.7614 62.2386 36 65 36V35ZM85 31H84C84 32.6569 82.6569 34 81 34V35V36C83.7615 36 86 33.7614 86 31H85Z" fill="#262626" mask="url(#path-8-inside-1_219_347)"/>
<defs>
<filter id="filter0_i_219_347" x="15" y="0" width="70" height="80.5" filterUnits="userSpaceOnUse" color-interpolation-filters="sRGB">
<feFlood flood-opacity="0" result="BackgroundImageFix"/>
<feBlend mode="normal" in="SourceGraphic" in2="BackgroundImageFix" result="shape"/>
<feColorMatrix in="SourceAlpha" type="matrix" values="0 0 0 0 0 0 0 0 0 0 0 0 0 0 0 0 0 0 127 0" result="hardAlpha"/>
<feOffset dy="2"/>
<feGaussianBlur stdDeviation="0.25"/>
<feComposite in2="hardAlpha" operator="arithmetic" k2="-1" k3="1"/>
<feColorMatrix type="matrix" values="0 0 0 0 1 0 0 0 0 1 0 0 0 0 1 0 0 0 0.6 0"/>
<feBlend mode="normal" in2="shape" result="effect1_innerShadow_219_347"/>
</filter>
<linearGradient id="paint0_linear_219_347" x1="50" y1="0" x2="50" y2="80" gradientUnits="userSpaceOnUse">
<stop stop-color="#595959"/>
<stop offset="1" stop-color="#262626"/>
</linearGradient>
</defs>
</svg>
