<svg width="24" height="24" viewBox="0 0 24 24" fill="none" xmlns="http://www.w3.org/2000/svg">
<path d="M15.2998 0C19.2763 0 22.5 3.22368 22.5 7.2002V9.30096C22.5 9.96371 21.9627 10.501 21.3 10.501H16.4998C15.8371 10.501 15.2998 9.96371 15.2998 9.30096V6.60059C15.2998 6.26921 15.0316 6.00098 14.7002 6.00098H9.2998C8.96858 6.00116 8.7002 6.26932 8.7002 6.60059V17.3486C8.70026 17.8522 9.28317 18.1317 9.67578 17.8164L11.624 16.25C11.8435 16.0736 12.1564 16.0737 12.376 16.25L14.3242 17.8164C14.7168 18.132 15.2997 17.8523 15.2998 17.3486V14.701C15.2998 14.0382 15.8371 13.501 16.4998 13.501H21.3C21.9627 13.501 22.5 14.0382 22.5 14.701V16.7998C22.5 20.7763 19.2763 24 15.2998 24H8.7002C4.72368 24 1.5 20.7763 1.5 16.7998V7.2002C1.5 3.22368 4.72368 0 8.7002 0H15.2998Z" fill="#262626"/>
</svg>
